<?xml version="1.0" standalone="no"?>
<!DOCTYPE svg PUBLIC "-//W3C//DTD SVG 20010904//EN"
 "http://www.w3.org/TR/2001/REC-SVG-20010904/DTD/svg10.dtd">
<svg version="1.0" xmlns="http://www.w3.org/2000/svg"
 width="325.000000pt" height="325.000000pt" viewBox="0 0 325.000000 325.000000"
 preserveAspectRatio="xMidYMid meet">
<metadata>
Created by potrace 1.11, written by Peter Selinger 2001-2013
</metadata>
<g transform="translate(0.000000,325.000000) scale(0.100000,-0.100000)"
fill="#000000" stroke="none">
<path d="M1409 3245 c-2 -1 -41 -5 -87 -9 -45 -3 -92 -8 -105 -10 -12 -3 -40
-8 -62 -10 -95 -13 -247 -44 -365 -76 -244 -66 -579 -204 -638 -261 -33 -33
-50 -97 -37 -141 20 -62 79 -108 140 -108 23 0 39 -28 194 -339 l170 -338 -4
-97 c-4 -85 -1 -105 20 -163 34 -88 95 -163 173 -209 l64 -38 359 -717 c197
-395 363 -720 369 -724 6 -4 22 -4 36 -1 20 5 53 64 205 369 163 326 186 367
234 413 68 65 96 121 103 204 5 62 25 105 398 853 360 719 396 787 418 787 37
0 77 18 103 47 49 52 56 113 21 175 -19 34 -38 48 -109 83 -280 137 -649 248
-949 285 -52 6 -106 14 -120 17 -28 5 -526 14 -531 8z"/>
</g>
</svg>
